<?xml version="1.0" encoding="utf-8"?>
<!-- Generator: Adobe Illustrator 16.0.0, SVG Export Plug-In . SVG Version: 6.00 Build 0)  -->
<!DOCTYPE svg PUBLIC "-//W3C//DTD SVG 1.1//EN" "http://www.w3.org/Graphics/SVG/1.1/DTD/svg11.dtd">
<svg version="1.1" id="Layer_1" xmlns="http://www.w3.org/2000/svg" xmlns:xlink="http://www.w3.org/1999/xlink" x="0px" y="0px"
	  viewBox="0 0 766 562" enable-background="new 0 0 766 562" xml:space="preserve">
<g>
	<g id="Window_Bar">
		<path fill="#1A1A1A" d="M766,530.316C766,547.814,754.798,562,740.979,562H25.021C11.202,562,0,547.814,0,530.316V31.684
			C0,14.185,11.202,0,25.021,0h715.957C754.798,0,766,14.185,766,31.684V530.316z"/>
		<g id="Window_top">
			<path id="Bar" d="M0,31.842C0,14.343,11.202,0,25.021,0h715.957C754.798,0,766,14.185,766,31.684"/>
			<g id="Buttons">
				<ellipse fill="#DD0000" cx="33.167" cy="14.921" rx="7.897" ry="10"/>
				<ellipse fill="#ead300" cx="52.909" cy="14.921" rx="7.897" ry="10"/>
				<ellipse fill="#39b54a" cx="72.652" cy="14.921" rx="7.897" ry="10"/>
			</g>
		</g>
	</g>
	<g id="Code_section">
		<path fill="#1A1A1A" d="M684,526.083c0,16.372-9.11,29.917-20.723,29.917H205.622C194.01,556,184,542.455,184,526.083V61.645
			C184,45.272,194.01,32,205.622,32h457.655C674.89,32,684,45.272,684,61.645V526.083z"/>
		<path fill="#333333" d="M205.372,556C193.76,556,184,542.455,184,526.083V61.645C184,45.272,193.536,32,205.148,32"/>
	</g>
	<g id="Folder_View">
		<g id="main">
			<path fill="#4D4D4D" d="M98,556H30.674C20.059,556,10,539.913,10,523.542V59.109C10,42.736,20.059,32,30.674,32H99"/>
			<path fill="#4D4D4D" d="M88,556h68.16c10.616,0,17.84-16.087,17.84-32.458V59.109C174,42.736,166.776,32,156.16,32H88"/>
		</g>
	</g>
	<g>
		<path fill="#808080" d="M161,412c0,1.104-0.144,2-0.671,2H67.646c-0.528,0-0.646-0.896-0.646-2v-6c0-1.104,0.119-2,0.646-2h92.682
			c0.528,0,0.671,0.896,0.671,2V412z"/>
		<path fill="#808080" d="M161,397c0,1.104-0.144,2-0.671,2H67.646c-0.528,0-0.646-0.896-0.646-2v-6c0-1.104,0.119-2,0.646-2h92.682
			c0.528,0,0.671,0.896,0.671,2V397z"/>
		<path fill="#808080" d="M161,382c0,1.104-0.112,2-0.602,2H74.432c-0.49,0-0.432-0.896-0.432-2v-6c0-1.104-0.058-2,0.432-2h85.966
			c0.49,0,0.602,0.896,0.602,2V382z"/>
		<path fill="#808080" d="M161,367c0,1.104-0.112,2-0.602,2H74.432c-0.49,0-0.432-0.896-0.432-2v-6c0-1.104-0.058-2,0.432-2h85.966
			c0.49,0,0.602,0.896,0.602,2V367z"/>
		<path fill="#999999" d="M161,352c0,1.104-0.144,2-0.671,2H67.646c-0.528,0-0.646-0.896-0.646-2v-6c0-1.104,0.119-2,0.646-2h92.682
			c0.528,0,0.671,0.896,0.671,2V352z"/>
		<path fill="#999999" d="M161,337c0,1.104-0.175,2-0.741,2H60.861c-0.566,0-0.861-0.896-0.861-2v-6c0-1.104,0.295-2,0.861-2h99.398
			c0.566,0,0.741,0.896,0.741,2V337z"/>
		<path fill="#999999" d="M161,322c0,1.104-0.206,2-0.81,2H54.076c-0.604,0-1.076-0.896-1.076-2v-6c0-1.104,0.472-2,1.076-2H160.19
			c0.604,0,0.81,0.896,0.81,2V322z"/>
		<path fill="#999999" d="M161,307c0,1.104-0.237,2-0.879,2H47.291c-0.643,0-1.291-0.896-1.291-2v-6c0-1.104,0.648-2,1.291-2
			h112.831c0.642,0,0.879,0.896,0.879,2V307z"/>
		<path fill="#808080" d="M161,292c0,1.104-0.237,2-0.879,2H47.291c-0.643,0-1.291-0.896-1.291-2v-6c0-1.104,0.648-2,1.291-2
			h112.831c0.642,0,0.879,0.896,0.879,2V292z"/>
		<path fill="#999999" d="M161,277c0,1.104-0.268,2-0.948,2H40.505c-0.681,0-1.505-0.896-1.505-2v-6c0-1.104,0.825-2,1.505-2
			h119.546c0.681,0,0.948,0.896,0.948,2V277z"/>
		<path fill="#999999" d="M161,262c0,1.104-0.299,2-1.018,2H33.72c-0.718,0-1.72-0.896-1.72-2v-6c0-1.104,1.001-2,1.72-2h126.263
			c0.719,0,1.018,0.896,1.018,2V262z"/>
		<path fill="#808080" d="M161,247c0,1.104-0.237,2-0.879,2H47.291c-0.643,0-1.291-0.896-1.291-2v-6c0-1.104,0.648-2,1.291-2
			h112.831c0.642,0,0.879,0.896,0.879,2V247z"/>
		<path fill="#808080" d="M161,232c0,1.104-0.237,2-0.879,2H47.291c-0.643,0-1.291-0.896-1.291-2v-6c0-1.104,0.648-2,1.291-2
			h112.831c0.642,0,0.879,0.896,0.879,2V232z"/>
		<path fill="#999999" d="M161,217c0,1.104-0.268,2-0.948,2H40.505c-0.681,0-1.505-0.896-1.505-2v-6c0-1.104,0.825-2,1.505-2
			h119.546c0.681,0,0.948,0.896,0.948,2V217z"/>
		<path fill="#808080" d="M161,202c0,1.104-0.208,2-0.813,2H53.696C53.09,204,52,203.104,52,202v-6c0-1.104,1.09-2,1.696-2h106.49
			c0.606,0,0.813,0.896,0.813,2V202z"/>
		<path fill="#999999" d="M161,187c0,1.104-0.238,2-0.883,2H46.93c-0.645,0-1.93-0.896-1.93-2v-6c0-1.104,1.285-2,1.93-2h113.188
			c0.645,0,0.883,0.896,0.883,2V187z"/>
		<path fill="#999999" d="M161,172c0,1.104-0.268,2-0.948,2H40.505c-0.681,0-1.505-0.896-1.505-2v-6c0-1.104,0.824-2,1.505-2
			h119.546c0.681,0,0.948,0.896,0.948,2V172z"/>
		<path fill="#808080" d="M161,157c0,1.104-0.268,2-0.948,2H40.505c-0.681,0-1.505-0.896-1.505-2v-6c0-1.104,0.825-2,1.505-2
			h119.546c0.681,0,0.948,0.896,0.948,2V157z"/>
		<path fill="#808080" d="M161,142c0,1.104-0.268,2-0.948,2H40.505c-0.681,0-1.505-0.896-1.505-2v-6c0-1.104,0.825-2,1.505-2
			h119.546c0.681,0,0.948,0.896,0.948,2V142z"/>
		<path fill="#808080" d="M161,127c0,1.104-0.268,2-0.948,2H40.505c-0.681,0-1.505-0.896-1.505-2v-6c0-1.104,0.825-2,1.505-2
			h119.546c0.681,0,0.948,0.896,0.948,2V127z"/>
		<path fill="#808080" d="M161,112c0,1.104-0.268,2-0.948,2H40.505c-0.681,0-1.505-0.896-1.505-2v-6c0-1.104,0.824-2,1.505-2
			h119.546c0.681,0,0.948,0.896,0.948,2V112z"/>
		<path fill="#999999" d="M161,97c0,1.104-0.299,2-1.018,2H33.72C33.001,99,32,98.104,32,97v-6c0-1.104,1.001-2,1.72-2h126.263
			c0.719,0,1.018,0.896,1.018,2V97z"/>
		<path fill="#808080" d="M161,82c0,1.104-0.33,2-1.087,2H26.935C26.178,84,26,83.104,26,82v-6c0-1.104,0.178-2,0.935-2h132.979
			c0.757,0,1.087,0.896,1.087,2V82z"/>
		<path fill="#999999" d="M161,67c0,1.104-0.33,2-1.087,2H26.935C26.178,69,26,68.104,26,67v-6c0-1.104,0.178-2,0.935-2h132.979
			c0.757,0,1.087,0.896,1.087,2V67z"/>
	</g>
	<g>
		<g>
			<g>
				<rect x="244" y="194" fill="#C1272D" width="15" height="8"/>
				<rect x="264" y="194" fill="#0071BC" width="75" height="8"/>
			</g>
			<g>
				<rect x="254" y="207" fill="#0071BC" width="64" height="8"/>
				<rect x="323" y="207" fill="#0071BC" width="28" height="8"/>
			</g>
			<g>
				<rect x="244" y="168" fill="#0071BC" width="75" height="8"/>
				<rect x="374" y="168" fill="#0071BC" width="75" height="8"/>
				<rect x="324" y="168" fill="#FBB03B" width="45" height="8"/>
			</g>
			<rect x="254" y="220" fill="#0071BC" width="80" height="8"/>
			<g>
				<rect x="244" y="259" fill="#C1272D" width="47" height="8"/>
				<rect x="296" y="259" fill="#0071BC" width="80" height="8"/>
			</g>
			<g>
				<rect x="360" y="180" fill="#0071BC" width="80" height="8"/>
				<rect x="329" y="180" fill="#0071BC" width="26" height="8"/>
				<rect x="244" y="181" fill="#0071BC" width="80" height="8"/>
			</g>
			<g>
				<rect x="268" y="129" fill="#0071BC" width="65" height="8"/>
				<rect x="244" y="129" fill="#662D91" width="20" height="8"/>
			</g>
			<g>
				<rect x="268" y="142" fill="#0071BC" width="45" height="8"/>
				<rect x="244" y="142" fill="#662D91" width="20" height="8"/>
			</g>
			<g>
				<rect x="268" y="155" fill="#0071BC" width="55" height="8"/>
				<rect x="244" y="155" fill="#662D91" width="20" height="8"/>
			</g>
			<g>
				<rect x="304" y="233" fill="#0071BC" width="75" height="8"/>
				<rect x="254" y="233" fill="#FBB03B" width="45" height="8"/>
			</g>
			<rect x="254" y="246" fill="#0071BC" width="15" height="8"/>
		</g>
		<rect x="234" y="116" fill="#22B573" width="40" height="8"/>
		<rect x="279" y="116" fill="#0071BC" width="82" height="8"/>
	</g>
	<g>
		<rect x="234" y="282" fill="#22B573" width="40" height="8"/>
		<rect x="279" y="282" fill="#0071BC" width="61" height="8"/>
		<g>
			<g>
				<rect x="244" y="334" fill="#C1272D" width="15" height="8"/>
				<rect x="264" y="334" fill="#0071BC" width="75" height="8"/>
			</g>
			<g>
				<rect x="254" y="373" fill="#0071BC" width="64" height="8"/>
				<rect x="323" y="373" fill="#0071BC" width="28" height="8"/>
			</g>
			<g>
				<rect x="264" y="438" fill="#0071BC" width="49" height="8"/>
				<rect x="318" y="438" fill="#F7931E" width="14" height="8"/>
				<rect x="337" y="438" fill="#0071BC" width="30" height="8"/>
			</g>
			<g>
				<rect x="264" y="451" fill="#F7931E" width="32" height="8"/>
				<rect x="301" y="451" fill="#0071BC" width="41" height="8"/>
				<rect x="347" y="451" fill="#0071BC" width="30" height="8"/>
			</g>
			<g>
				<rect x="254" y="477" fill="#F7931E" width="32" height="8"/>
				<rect x="291" y="477" fill="#0071BC" width="41" height="8"/>
				<rect x="337" y="477" fill="#0071BC" width="30" height="8"/>
			</g>
			<g>
				<rect x="244" y="321" fill="#0071BC" width="50" height="8"/>
				<rect x="356" y="321" fill="#0071BC" width="100" height="8"/>
				<rect x="299" y="321" fill="#FBB03B" width="52" height="8"/>
			</g>
			<rect x="254" y="386" fill="#0071BC" width="80" height="8"/>
			<rect x="264" y="425" fill="#0071BC" width="80" height="8"/>
			<rect x="254" y="464" fill="#0071BC" width="80" height="8"/>
			<g>
				<rect x="244" y="501" fill="#C1272D" width="47" height="8"/>
				<rect x="296" y="501" fill="#0071BC" width="80" height="8"/>
			</g>
			<g>
				<rect x="268" y="295" fill="#0071BC" width="65" height="8"/>
				<rect x="244" y="295" fill="#662D91" width="20" height="8"/>
			</g>
			<g>
				<rect x="268" y="308" fill="#0071BC" width="55" height="8"/>
				<rect x="244" y="308" fill="#662D91" width="20" height="8"/>
			</g>
			<g>
				<rect x="304" y="360" fill="#0071BC" width="75" height="8"/>
				<rect x="254" y="360" fill="#FBB03B" width="45" height="8"/>
			</g>
			<g>
				<rect x="314" y="412" fill="#0071BC" width="75" height="8"/>
				<rect x="264" y="412" fill="#FBB03B" width="45" height="8"/>
			</g>
			<g>
				<rect x="278" y="347" fill="#0071BC" width="55" height="8"/>
				<rect x="254" y="347" fill="#662D91" width="20" height="8"/>
			</g>
			<rect x="254" y="488" fill="#0071BC" width="15" height="8"/>
			<g>
				<rect x="254" y="399" fill="#C1272D" width="15" height="8"/>
				<rect x="274" y="399" fill="#FBB03B" width="40" height="8"/>
				<rect x="319" y="399" fill="#0071BC" width="25" height="8"/>
			</g>
		</g>
	</g>
	<g>
		<rect x="234" y="40" fill="#666666" width="279" height="8"/>
		<rect x="234" y="53" fill="#666666" width="250" height="8"/>
		<rect x="234" y="66" fill="#666666" width="279" height="8"/>
		<rect x="234" y="79" fill="#666666" width="271" height="8"/>
		<rect x="234" y="92" fill="#666666" width="227" height="8"/>
	</g>
</g>
</svg>
