<?xml version="1.0" encoding="utf-8"?>
<!-- Generator: Adobe Illustrator 19.1.0, SVG Export Plug-In . SVG Version: 6.00 Build 0)  -->
<svg version="1.1" id="Layer_1" xmlns="http://www.w3.org/2000/svg" xmlns:xlink="http://www.w3.org/1999/xlink" x="0px" y="0px"
	 viewBox="0 0 600 600" style="enable-background:new 0 0 600 600;" xml:space="preserve">
<style type="text/css">
	.st0{font-family:'SourceCodePro-Regular';}
	.st1{font-size:160.3306px;}
</style>
<path d="M557.1,0H42.9C19.2,0,0,19.2,0,42.9v514.3C0,580.8,19.2,600,42.9,600h514.3c23.7,0,42.9-19.2,42.9-42.9V42.9
	C600,19.2,580.8,0,557.1,0z M557.1,542.4c0,8.1-6.6,14.7-14.7,14.7H57.6c-8.1,0-14.7-6.6-14.7-14.7V57.6c0-8.1,6.6-14.7,14.7-14.7
	h484.9c8.1,0,14.7,6.6,14.7,14.7V542.4z"/>
<text transform="matrix(1 0 0 1 42.8569 172.1514)" class="st0 st1">&gt;_</text>
</svg>
