<?xml version="1.0" encoding="utf-8"?>
<!-- Generator: Adobe Illustrator 19.1.0, SVG Export Plug-In . SVG Version: 6.00 Build 0)  -->
<svg version="1.1" id="Layer_1" xmlns="http://www.w3.org/2000/svg" xmlns:xlink="http://www.w3.org/1999/xlink" x="0px" y="0px"
	 viewBox="0 0 600 600" style="enable-background:new 0 0 600 600;" xml:space="preserve">
<path d="M157.9-248.7h-9.6v-127.4H104v-9h98.2v9h-44.3V-248.7z"/>
<path d="M264.6-244.9v59.4H255v-136.3h32.5c16.9,0,29.4,3.1,37.5,9.4c8.1,6.2,12.1,15.7,12.1,28.2c0,9.1-2.4,16.8-7.2,23.1
	c-4.8,6.3-12.1,10.8-22,13.5l37,62.1h-11.4l-35.2-59.4H264.6z M264.6-253.1h26c11.5,0,20.4-2.6,26.8-7.7c6.3-5.1,9.5-12.7,9.5-22.7
	c0-10.4-3.1-17.9-9.3-22.7c-6.2-4.7-16.4-7.1-30.4-7.1h-22.6V-253.1z"/>
<path d="M455.3-380.9c-17.1,0-30.6,5.5-40.4,16.4c-9.8,10.9-14.7,25.9-14.7,45c0,19.5,4.6,34.6,13.9,45.3
	c9.3,10.8,22.5,16.1,39.7,16.1c11.4,0,21.9-1.5,31.5-4.4v8.4c-9,3.2-20.3,4.8-33.8,4.8c-19.2,0-34.2-6.2-45.2-18.6
	c-11-12.4-16.5-29.7-16.5-51.9c0-13.9,2.6-26.1,7.9-36.7c5.3-10.6,12.8-18.7,22.7-24.5c9.9-5.8,21.3-8.6,34.4-8.6
	c13.3,0,25.2,2.5,35.7,7.5l-3.8,8.6C476.7-378.5,466.3-380.9,455.3-380.9z"/>
<path d="M1075.6-528.5H764.4c-14.3,0-25.9,11.6-25.9,25.9v311.1c0,14.3,11.6,25.9,25.9,25.9h311.1c14.3,0,25.9-11.6,25.9-25.9
	v-311.1C1101.5-516.9,1089.9-528.5,1075.6-528.5z M1075.6-200.3c0,4.9-4,8.9-8.9,8.9H773.3c-4.9,0-8.9-4-8.9-8.9v-293.4
	c0-4.9,4-8.9,8.9-8.9h293.4c4.9,0,8.9,4,8.9,8.9V-200.3z"/>
<g>
	<g>
		<g>
			<rect x="792.4" y="-342.3" width="25.9" height="15"/>
			<rect x="826.7" y="-342.3" width="127.6" height="15"/>
		</g>
		<g>
			<rect x="809.5" y="-316.9" width="109.4" height="14"/>
			<rect x="927.8" y="-316.9" width="47.7" height="14"/>
		</g>
		<g>
			<rect x="792.4" y="-391" width="128.1" height="14.5"/>
			<rect x="1014.4" y="-391" width="44.6" height="14.5"/>
			<rect x="929.3" y="-391" width="76.7" height="14.5"/>
		</g>
		<rect x="809.5" y="-293.5" width="136.9" height="16.1"/>
		<g>
			<rect x="792.4" y="-218.9" width="80.4" height="15"/>
			<rect x="881.6" y="-218.9" width="135.9" height="15"/>
		</g>
		<g>
			<rect x="990.5" y="-368.7" width="74.2" height="15"/>
			<rect x="937.6" y="-368.7" width="44.1" height="15"/>
			<rect x="792.4" y="-366.7" width="136.9" height="15.6"/>
		</g>
		<g>
			<rect x="833.4" y="-465.7" width="111" height="15.6"/>
			<rect x="792.4" y="-465.7" width="34.2" height="15.6"/>
		</g>
		<g>
			<rect x="833.4" y="-440.3" width="77.3" height="15"/>
			<rect x="792.4" y="-440.3" width="34.2" height="15"/>
		</g>
		<g>
			<rect x="833.4" y="-416.5" width="94.4" height="16.1"/>
			<rect x="792.4" y="-416.5" width="34.2" height="16.1"/>
		</g>
		<g>
			<rect x="895.1" y="-268.7" width="128.1" height="15"/>
			<rect x="809.5" y="-268.7" width="76.7" height="15"/>
		</g>
		<rect x="809.5" y="-243.8" width="25.9" height="15.6"/>
	</g>
	<rect x="775.3" y="-490.1" width="67.9" height="15"/>
	<rect x="852.1" y="-490.1" width="140.5" height="15"/>
</g>
<path d="M920,65c-129.8,0-235,105.2-235,235s105.2,235,235,235s235-105.2,235-235S1049.8,65,920,65z M920,525
	c-124.3,0-225-100.7-225-225S795.7,75,920,75s225,100.7,225,225S1044.3,525,920,525z"/>
<path d="M300-555C170.2-555,65-449.8,65-320S170.2-85,300-85s235-105.2,235-235S429.8-555,300-555z M300-95
	C175.7-95,75-195.7,75-320s100.7-225,225-225s225,100.7,225,225S424.3-95,300-95z"/>
<g>
	<path d="M748.4,355.3c0,6.3,1.8,11,5.5,14.1c3.7,3.1,9.9,4.8,18.8,5v8.4c-12.1,0-20.6-2.3-25.7-7c-5.1-4.6-7.7-11.8-7.7-21.4v-31.3
		c0-12.7-7.1-19.1-21.3-19.4v-7.4c7.5-0.1,13-1.7,16.3-4.7c3.3-3,5-7.6,5-13.7v-32.5c0-18.5,11.1-27.9,33.4-28.3v8.3
		c-8.5,0.3-14.7,2.1-18.6,5.4c-3.8,3.3-5.8,8.1-5.8,14.6v28.3c0,8-1.4,14-4.1,18c-2.7,4-7.1,6.6-13.2,7.9v0.7
		c6,1.2,10.4,3.8,13.1,7.7c2.8,3.9,4.1,9.7,4.1,17.3V355.3z"/>
	<path d="M815.8,352.8h-6.4v-84.7H780v-6h65.3v6h-29.5V352.8z"/>
	<path d="M855.9,348c0-4.1,1.7-6.1,5-6.1c3.4,0,5.1,2,5.1,6.1c0,4.1-1.7,6.1-5.1,6.1C857.6,354,855.9,352,855.9,348z"/>
	<path d="M895.3,313.3v39.5h-6.3v-90.7h21.6c11.2,0,19.6,2.1,24.9,6.2c5.4,4.2,8.1,10.4,8.1,18.8c0,6.1-1.6,11.2-4.8,15.4
		c-3.2,4.2-8.1,7.2-14.6,9l24.6,41.3h-7.6l-23.4-39.5H895.3z M895.3,307.8h17.3c7.6,0,13.6-1.7,17.8-5.1c4.2-3.4,6.3-8.4,6.3-15.1
		c0-6.9-2.1-11.9-6.2-15.1c-4.1-3.1-10.9-4.7-20.2-4.7h-15V307.8z"/>
	<path d="M961.6,348c0-4.1,1.7-6.1,5-6.1c3.4,0,5.1,2,5.1,6.1c0,4.1-1.7,6.1-5.1,6.1C963.3,354,961.6,352,961.6,348z"/>
	<path d="M1033.3,266.5c-11.4,0-20.3,3.6-26.9,10.9c-6.5,7.3-9.8,17.2-9.8,29.9c0,12.9,3.1,23,9.2,30.1c6.2,7.2,15,10.7,26.4,10.7
		c7.6,0,14.6-1,21-2.9v5.6c-6,2.1-13.5,3.2-22.4,3.2c-12.7,0-22.8-4.1-30.1-12.3s-11-19.7-11-34.5c0-9.2,1.7-17.3,5.2-24.4
		c3.5-7,8.5-12.5,15.1-16.3c6.6-3.8,14.2-5.7,22.9-5.7c8.8,0,16.8,1.7,23.8,5l-2.5,5.7C1047.5,268.2,1040.6,266.5,1033.3,266.5z"/>
	<path d="M1091.6,325.4c0-7.6,1.4-13.4,4.1-17.3c2.8-3.9,7.1-6.5,13.1-7.7v-0.7c-6-1.2-10.4-3.8-13.1-7.8c-2.8-4-4.1-10-4.1-18.1
		v-28.3c0-6.4-1.9-11.2-5.7-14.5c-3.8-3.3-10-5.1-18.6-5.4v-8.3c10.8,0,19,2.4,24.8,7.2c5.8,4.8,8.6,11.8,8.6,21.1v32.5
		c0,6.2,1.7,10.8,5.1,13.8c3.4,3,8.8,4.6,16.3,4.7v7.4c-14.2,0.2-21.3,6.7-21.3,19.4v31.3c0,9.6-2.6,16.7-7.7,21.4
		c-5.1,4.7-13.7,7-25.7,7v-8.4c8.7-0.1,15-1.7,18.7-4.9c3.7-3.1,5.6-7.9,5.6-14.2V325.4z"/>
</g>
<g>
	<path d="M748.4,355.3c0,6.3,1.8,11,5.5,14.1c3.7,3.1,9.9,4.8,18.8,5v8.4c-12.1,0-20.6-2.3-25.7-7c-5.1-4.6-7.7-11.8-7.7-21.4v-31.3
		c0-12.7-7.1-19.1-21.3-19.4v-7.4c7.5-0.1,13-1.7,16.3-4.7c3.3-3,5-7.6,5-13.7v-32.5c0-18.5,11.1-27.9,33.4-28.3v8.3
		c-8.5,0.3-14.7,2.1-18.6,5.4c-3.8,3.3-5.8,8.1-5.8,14.6v28.3c0,8-1.4,14-4.1,18c-2.7,4-7.1,6.6-13.2,7.9v0.7
		c6,1.2,10.4,3.8,13.1,7.7c2.8,3.9,4.1,9.7,4.1,17.3V355.3z"/>
	<path d="M815.8,352.8h-6.4v-84.7H780v-6h65.3v6h-29.5V352.8z"/>
	<path d="M855.9,348c0-4.1,1.7-6.1,5-6.1c3.4,0,5.1,2,5.1,6.1c0,4.1-1.7,6.1-5.1,6.1C857.6,354,855.9,352,855.9,348z"/>
	<path d="M895.3,313.3v39.5h-6.3v-90.7h21.6c11.2,0,19.6,2.1,24.9,6.2c5.4,4.2,8.1,10.4,8.1,18.8c0,6.1-1.6,11.2-4.8,15.4
		c-3.2,4.2-8.1,7.2-14.6,9l24.6,41.3h-7.6l-23.4-39.5H895.3z M895.3,307.8h17.3c7.6,0,13.6-1.7,17.8-5.1c4.2-3.4,6.3-8.4,6.3-15.1
		c0-6.9-2.1-11.9-6.2-15.1c-4.1-3.1-10.9-4.7-20.2-4.7h-15V307.8z"/>
	<path d="M961.6,348c0-4.1,1.7-6.1,5-6.1c3.4,0,5.1,2,5.1,6.1c0,4.1-1.7,6.1-5.1,6.1C963.3,354,961.6,352,961.6,348z"/>
	<path d="M1033.3,266.5c-11.4,0-20.3,3.6-26.9,10.9c-6.5,7.3-9.8,17.2-9.8,29.9c0,12.9,3.1,23,9.2,30.1c6.2,7.2,15,10.7,26.4,10.7
		c7.6,0,14.6-1,21-2.9v5.6c-6,2.1-13.5,3.2-22.4,3.2c-12.7,0-22.8-4.1-30.1-12.3s-11-19.7-11-34.5c0-9.2,1.7-17.3,5.2-24.4
		c3.5-7,8.5-12.5,15.1-16.3c6.6-3.8,14.2-5.7,22.9-5.7c8.8,0,16.8,1.7,23.8,5l-2.5,5.7C1047.5,268.2,1040.6,266.5,1033.3,266.5z"/>
	<path d="M1091.6,325.4c0-7.6,1.4-13.4,4.1-17.3c2.8-3.9,7.1-6.5,13.1-7.7v-0.7c-6-1.2-10.4-3.8-13.1-7.8c-2.8-4-4.1-10-4.1-18.1
		v-28.3c0-6.4-1.9-11.2-5.7-14.5c-3.8-3.3-10-5.1-18.6-5.4v-8.3c10.8,0,19,2.4,24.8,7.2c5.8,4.8,8.6,11.8,8.6,21.1v32.5
		c0,6.2,1.7,10.8,5.1,13.8c3.4,3,8.8,4.6,16.3,4.7v7.4c-14.2,0.2-21.3,6.7-21.3,19.4v31.3c0,9.6-2.6,16.7-7.7,21.4
		c-5.1,4.7-13.7,7-25.7,7v-8.4c8.7-0.1,15-1.7,18.7-4.9c3.7-3.1,5.6-7.9,5.6-14.2V325.4z"/>
</g>
<g>
	<path d="M119.1,358.2c0,6.6,1.9,11.6,5.8,14.9c3.9,3.3,10.5,5,19.8,5.2v8.9c-12.7,0-21.7-2.4-27.1-7.3s-8.1-12.4-8.1-22.6v-32.9
		c0-13.3-7.5-20.1-22.5-20.4v-7.8c7.9-0.1,13.7-1.8,17.2-5c3.5-3.2,5.3-8,5.3-14.5v-34.2c0-19.5,11.7-29.4,35.2-29.8v8.8
		c-9,0.3-15.5,2.2-19.5,5.7c-4,3.5-6.1,8.6-6.1,15.3v29.8c0,8.5-1.4,14.8-4.3,18.9c-2.9,4.2-7.5,6.9-13.9,8.3v0.8
		c6.3,1.3,10.9,4,13.8,8.2c2.9,4.1,4.3,10.2,4.3,18.2V358.2z"/>
	<path d="M192.1,355.6h-10.5v-81.3h-28.7v-9.4h68v9.4h-28.7V355.6z"/>
	<path d="M231.4,349c0-2.8,0.6-4.9,1.9-6.3c1.3-1.4,3.1-2.1,5.4-2.1c2.4,0,4.3,0.7,5.6,2.1c1.3,1.4,2,3.5,2,6.3c0,2.7-0.7,4.8-2,6.2
		s-3.2,2.2-5.6,2.2c-2.1,0-3.9-0.7-5.2-2C232.1,354.1,231.4,352,231.4,349z"/>
	<path d="M278.8,317.9v37.7h-10.5v-90.7h24.9c11.1,0,19.3,2.1,24.6,6.4c5.3,4.3,8,10.7,8,19.2c0,12-6.1,20.1-18.2,24.3l24.6,40.7
		h-12.5l-22-37.7H278.8z M278.8,308.8h14.4c7.4,0,12.9-1.5,16.4-4.4c3.5-3,5.2-7.4,5.2-13.3c0-6-1.8-10.3-5.3-13
		c-3.5-2.6-9.2-4-17-4h-13.7V308.8z"/>
	<path d="M343.7,349c0-2.8,0.6-4.9,1.9-6.3c1.3-1.4,3.1-2.1,5.4-2.1c2.4,0,4.3,0.7,5.6,2.1c1.3,1.4,2,3.5,2,6.3c0,2.7-0.7,4.8-2,6.2
		s-3.2,2.2-5.6,2.2c-2.1,0-3.9-0.7-5.2-2C344.4,354.1,343.7,352,343.7,349z"/>
	<path d="M419.4,273c-10,0-17.8,3.3-23.6,10c-5.8,6.6-8.7,15.7-8.7,27.3c0,11.9,2.8,21,8.3,27.5c5.6,6.5,13.5,9.7,23.8,9.7
		c6.3,0,13.5-1.1,21.6-3.4v9.2c-6.3,2.4-14,3.5-23.3,3.5c-13.4,0-23.7-4.1-30.9-12.2c-7.3-8.1-10.9-19.6-10.9-34.5
		c0-9.3,1.7-17.5,5.2-24.6c3.5-7,8.5-12.4,15.1-16.2c6.6-3.8,14.4-5.7,23.3-5.7c9.5,0,17.8,1.7,24.9,5.2l-4.5,9.1
		C433.1,274.6,426.3,273,419.4,273z"/>
	<path d="M480.9,326.8c0-8,1.4-14.1,4.3-18.2c2.9-4.1,7.5-6.9,13.8-8.2v-0.8c-6.3-1.3-10.9-4-13.8-8.2c-2.9-4.2-4.3-10.5-4.3-19
		v-29.8c0-6.7-2-11.8-6-15.3c-4-3.5-10.5-5.4-19.6-5.7v-8.8c11.3,0,20,2.5,26.1,7.6c6.1,5,9.1,12.5,9.1,22.2v34.2
		c0,6.5,1.8,11.3,5.3,14.5c3.5,3.2,9.3,4.8,17.1,4.9v7.8c-15,0.3-22.5,7.1-22.5,20.4v32.9c0,10.1-2.7,17.6-8.1,22.5
		c-5.4,4.9-14.4,7.4-27.1,7.4v-8.9c9.2-0.1,15.7-1.8,19.7-5.1c3.9-3.3,5.9-8.3,5.9-15V326.8z"/>
</g>
<path d="M-32.3,300L300,632.3L632.3,300L300-32.3L-32.3,300z M604.1,300L300,604.1L-4.1,300L300-4.1L604.1,300z"/>
</svg>
