<?xml version="1.0" encoding="utf-8"?>
<!-- Generator: Adobe Illustrator 19.1.0, SVG Export Plug-In . SVG Version: 6.00 Build 0)  -->
<svg version="1.1" id="Layer_1" xmlns="http://www.w3.org/2000/svg" xmlns:xlink="http://www.w3.org/1999/xlink" x="0px" y="0px"
	 viewBox="0 0 600 600" style="enable-background:new 0 0 600 600;" xml:space="preserve">
<path d="M550,300L300,50L50,300l250,250L550,300z M60.6,300L300,60.6L539.4,300L300,539.4L60.6,300z"/>
<g>
	<path d="M170.9,341.6c0,4.7,1.4,8.3,4.2,10.6c2.8,2.3,7.5,3.6,14.1,3.7v6.4c-9.1,0-15.5-1.7-19.4-5.2c-3.8-3.5-5.8-8.9-5.8-16.1
		v-23.5c0-9.5-5.4-14.4-16.1-14.6v-5.6c5.7-0.1,9.8-1.3,12.3-3.6c2.5-2.3,3.8-5.7,3.8-10.3V259c0-13.9,8.4-21,25.1-21.3v6.3
		c-6.4,0.2-11.1,1.6-14,4c-2.9,2.5-4.3,6.1-4.3,11v21.3c0,6-1,10.6-3.1,13.5c-2,3-5.4,5-9.9,5.9v0.6c4.5,0.9,7.8,2.9,9.9,5.8
		c2.1,3,3.1,7.3,3.1,13V341.6z"/>
	<path d="M221.6,339.7h-4.8V276h-22.2v-4.5h49.1v4.5h-22.2V339.7z"/>
	<path d="M251.8,336.1c0-3,1.2-4.6,3.7-4.6c2.5,0,3.8,1.5,3.8,4.6c0,3-1.3,4.6-3.8,4.6C253.1,340.6,251.8,339.1,251.8,336.1z"/>
	<path d="M281.4,310v29.7h-4.8v-68.2h16.2c8.5,0,14.7,1.6,18.8,4.7c4,3.1,6.1,7.8,6.1,14.1c0,4.6-1.2,8.4-3.6,11.6
		c-2.4,3.1-6.1,5.4-11,6.8l18.5,31.1h-5.7L298.3,310H281.4z M281.4,305.9h13c5.8,0,10.2-1.3,13.4-3.8c3.2-2.6,4.8-6.4,4.8-11.4
		c0-5.2-1.6-9-4.7-11.3c-3.1-2.4-8.2-3.5-15.2-3.5h-11.3V305.9z"/>
	<path d="M331.3,336.1c0-3,1.2-4.6,3.7-4.6c2.5,0,3.8,1.5,3.8,4.6c0,3-1.3,4.6-3.8,4.6C332.5,340.6,331.3,339.1,331.3,336.1z"/>
	<path d="M385.2,274.8c-8.6,0-15.3,2.7-20.2,8.2c-4.9,5.5-7.4,13-7.4,22.5c0,9.7,2.3,17.3,7,22.7c4.6,5.4,11.3,8.1,19.9,8.1
		c5.7,0,11-0.7,15.8-2.2v4.2c-4.5,1.6-10.1,2.4-16.9,2.4c-9.6,0-17.1-3.1-22.6-9.3c-5.5-6.2-8.3-14.8-8.3-25.9
		c0-6.9,1.3-13,3.9-18.3c2.6-5.3,6.4-9.4,11.3-12.2c4.9-2.9,10.7-4.3,17.2-4.3c6.7,0,12.6,1.2,17.9,3.7l-1.9,4.3
		C395.9,276.1,390.7,274.8,385.2,274.8z"/>
	<path d="M429.1,319.1c0-5.7,1-10.1,3.1-13c2.1-3,5.4-4.9,9.9-5.8v-0.6c-4.5-0.9-7.8-2.9-9.9-5.9c-2.1-3-3.1-7.5-3.1-13.6V259
		c0-4.8-1.4-8.4-4.3-10.9c-2.9-2.5-7.5-3.8-14-4.1v-6.3c8.1,0,14.3,1.8,18.6,5.4c4.3,3.6,6.5,8.9,6.5,15.9v24.4
		c0,4.7,1.3,8.1,3.8,10.4c2.5,2.3,6.6,3.4,12.2,3.5v5.6c-10.7,0.2-16.1,5-16.1,14.6V341c0,7.2-1.9,12.6-5.8,16.1
		c-3.8,3.5-10.3,5.3-19.4,5.3V356c6.6-0.1,11.2-1.3,14.1-3.7c2.8-2.4,4.2-5.9,4.2-10.7V319.1z"/>
</g>
</svg>
