<?xml version="1.0" encoding="utf-8"?>
<!-- Generator: Adobe Illustrator 19.1.0, SVG Export Plug-In . SVG Version: 6.00 Build 0)  -->
<svg version="1.1" id="Layer_1" xmlns="http://www.w3.org/2000/svg" xmlns:xlink="http://www.w3.org/1999/xlink" x="0px" y="0px"
	 viewBox="0 0 600 600" style="enable-background:new 0 0 600 600;" xml:space="preserve">
<g>
	<path d="M441.3,135.2H158.7c-13,0-23.5,10.5-23.5,23.5v282.6c0,13,10.5,23.5,23.5,23.5h282.6c13,0,23.5-10.5,23.5-23.5V158.7
		C464.8,145.7,454.3,135.2,441.3,135.2z M441.3,433.2c0,4.5-3.6,8.1-8.1,8.1H166.8c-4.5,0-8.1-3.6-8.1-8.1V166.8
		c0-4.5,3.6-8.1,8.1-8.1h266.4c4.5,0,8.1,3.6,8.1,8.1V433.2z"/>
	<g>
		<g>
			<g>
				<rect x="184.1" y="304.2" width="23.5" height="13.7"/>
				<rect x="215.2" y="304.2" width="115.9" height="13.7"/>
			</g>
			<g>
				<rect x="199.7" y="327.3" width="99.4" height="12.7"/>
				<rect x="307.1" y="327.3" width="43.3" height="12.7"/>
			</g>
			<g>
				<rect x="184.1" y="260" width="116.3" height="13.2"/>
				<rect x="385.7" y="260" width="40.5" height="13.2"/>
				<rect x="308.5" y="260" width="69.7" height="13.2"/>
			</g>
			<rect x="199.7" y="348.5" width="124.3" height="14.6"/>
			<g>
				<rect x="184.1" y="416.3" width="73" height="13.7"/>
				<rect x="265.1" y="416.3" width="123.4" height="13.7"/>
			</g>
			<g>
				<rect x="364.1" y="280.2" width="67.3" height="13.7"/>
				<rect x="316" y="280.2" width="40" height="13.7"/>
				<rect x="184.1" y="282.1" width="124.3" height="14.1"/>
			</g>
			<g>
				<rect x="221.3" y="192.1" width="100.8" height="14.1"/>
				<rect x="184.1" y="192.1" width="31.1" height="14.1"/>
			</g>
			<g>
				<rect x="221.3" y="215.2" width="70.2" height="13.7"/>
				<rect x="184.1" y="215.2" width="31.1" height="13.7"/>
			</g>
			<g>
				<rect x="221.3" y="236.9" width="85.7" height="14.6"/>
				<rect x="184.1" y="236.9" width="31.1" height="14.6"/>
			</g>
			<g>
				<rect x="277.4" y="371.1" width="116.3" height="13.7"/>
				<rect x="199.7" y="371.1" width="69.7" height="13.7"/>
			</g>
			<rect x="199.7" y="393.7" width="23.5" height="14.1"/>
		</g>
		<rect x="168.6" y="170" width="61.7" height="13.7"/>
		<rect x="238.3" y="170" width="127.6" height="13.7"/>
	</g>
</g>
</svg>
