<?xml version="1.0" encoding="utf-8"?>
<!-- Generator: Adobe Illustrator 19.1.0, SVG Export Plug-In . SVG Version: 6.00 Build 0)  -->
<svg version="1.1" id="Layer_1" xmlns="http://www.w3.org/2000/svg" xmlns:xlink="http://www.w3.org/1999/xlink" x="0px" y="0px"
	 viewBox="0 0 600 600" style="enable-background:new 0 0 600 600;" xml:space="preserve">
<g>
	<path d="M136.7,352.5c0,6,1.7,10.5,5.2,13.4c3.5,3,9.4,4.5,17.9,4.7v8c-11.5,0-19.6-2.2-24.5-6.6c-4.8-4.4-7.3-11.2-7.3-20.4V322
		c0-12-6.8-18.2-20.3-18.4v-7.1c7.2-0.1,12.3-1.6,15.5-4.5c3.2-2.9,4.8-7.2,4.8-13v-30.9c0-17.6,10.6-26.5,31.7-26.9v7.9
		c-8.1,0.3-14,2-17.6,5.1c-3.6,3.1-5.5,7.7-5.5,13.8v26.9c0,7.6-1.3,13.3-3.9,17.1c-2.6,3.8-6.8,6.3-12.5,7.5v0.7
		c5.7,1.2,9.9,3.6,12.5,7.4c2.6,3.7,3.9,9.2,3.9,16.4V352.5z"/>
	<path d="M202.6,350.2h-9.5v-73.4h-25.9v-8.5h61.4v8.5h-25.9V350.2z"/>
	<path d="M238.1,344.2c0-2.5,0.6-4.4,1.7-5.7c1.1-1.3,2.8-1.9,4.9-1.9c2.2,0,3.9,0.6,5.1,1.9c1.2,1.3,1.8,3.2,1.8,5.7
		c0,2.4-0.6,4.3-1.8,5.6c-1.2,1.3-2.9,2-5,2c-1.9,0-3.5-0.6-4.7-1.8C238.7,348.8,238.1,346.9,238.1,344.2z"/>
	<path d="M280.9,316.1v34h-9.5v-81.8h22.4c10,0,17.5,1.9,22.3,5.8c4.8,3.8,7.2,9.6,7.2,17.4c0,10.8-5.5,18.1-16.5,21.9l22.2,36.8
		h-11.3l-19.8-34H280.9z M280.9,308h13c6.7,0,11.6-1.3,14.8-4c3.1-2.7,4.7-6.7,4.7-12c0-5.4-1.6-9.3-4.8-11.7
		c-3.2-2.4-8.3-3.6-15.4-3.6h-12.4V308z"/>
	<path d="M339.5,344.2c0-2.5,0.6-4.4,1.7-5.7c1.1-1.3,2.8-1.9,4.9-1.9c2.2,0,3.9,0.6,5.1,1.9c1.2,1.3,1.8,3.2,1.8,5.7
		c0,2.4-0.6,4.3-1.8,5.6c-1.2,1.3-2.9,2-5,2c-1.9,0-3.5-0.6-4.7-1.8C340.1,348.8,339.5,346.9,339.5,344.2z"/>
	<path d="M407.8,275.7c-9,0-16.1,3-21.3,9c-5.2,6-7.8,14.2-7.8,24.6c0,10.7,2.5,19,7.5,24.8c5,5.8,12.2,8.8,21.5,8.8
		c5.7,0,12.2-1,19.5-3.1v8.3c-5.7,2.1-12.7,3.2-21,3.2c-12.1,0-21.4-3.7-27.9-11c-6.5-7.3-9.8-17.7-9.8-31.2
		c0-8.4,1.6-15.8,4.7-22.2c3.2-6.3,7.7-11.2,13.7-14.7c6-3.4,13-5.1,21-5.1c8.6,0,16.1,1.6,22.5,4.7l-4,8.2
		C420.2,277.1,414,275.7,407.8,275.7z"/>
	<path d="M463.3,324.2c0-7.2,1.3-12.7,3.9-16.4c2.6-3.7,6.8-6.2,12.5-7.4v-0.7c-5.7-1.2-9.9-3.6-12.5-7.4c-2.6-3.8-3.9-9.5-3.9-17.2
		v-26.9c0-6.1-1.8-10.7-5.4-13.8c-3.6-3.1-9.5-4.9-17.7-5.2v-7.9c10.2,0,18.1,2.3,23.5,6.8c5.5,4.6,8.2,11.2,8.2,20.1V279
		c0,5.9,1.6,10.2,4.8,13.1c3.2,2.9,8.4,4.3,15.5,4.5v7.1c-13.5,0.2-20.3,6.4-20.3,18.4v29.7c0,9.1-2.4,15.9-7.3,20.3
		c-4.8,4.4-13,6.7-24.5,6.7v-8c8.3-0.1,14.2-1.7,17.8-4.6c3.6-3,5.3-7.5,5.3-13.5V324.2z"/>
</g>
<path d="M0,300l300,300l300-300L300,0L0,300z M574.5,300L300,574.5L25.5,300L300,25.5L574.5,300z"/>
</svg>
