<?xml version="1.0" encoding="utf-8"?>
<!-- Generator: Adobe Illustrator 19.1.0, SVG Export Plug-In . SVG Version: 6.00 Build 0)  -->
<svg version="1.1" id="Layer_1" xmlns="http://www.w3.org/2000/svg" xmlns:xlink="http://www.w3.org/1999/xlink" x="0px" y="0px"
	 viewBox="0 0 600 600" style="enable-background:new 0 0 600 600;" xml:space="preserve">
<path d="M157.9-248.7h-9.6v-127.4H104v-9h98.2v9h-44.3V-248.7z"/>
<path d="M264.6-244.9v59.4H255v-136.3h32.5c16.9,0,29.4,3.1,37.5,9.4c8.1,6.2,12.1,15.7,12.1,28.2c0,9.1-2.4,16.8-7.2,23.1
	c-4.8,6.3-12.1,10.8-22,13.5l37,62.1h-11.4l-35.2-59.4H264.6z M264.6-253.1h26c11.5,0,20.4-2.6,26.8-7.7c6.3-5.1,9.5-12.7,9.5-22.7
	c0-10.4-3.1-17.9-9.3-22.7c-6.2-4.7-16.4-7.1-30.4-7.1h-22.6V-253.1z"/>
<path d="M455.3-380.9c-17.1,0-30.6,5.5-40.4,16.4c-9.8,10.9-14.7,25.9-14.7,45c0,19.5,4.6,34.6,13.9,45.3
	c9.3,10.8,22.5,16.1,39.7,16.1c11.4,0,21.9-1.5,31.5-4.4v8.4c-9,3.2-20.3,4.8-33.8,4.8c-19.2,0-34.2-6.2-45.2-18.6
	c-11-12.4-16.5-29.7-16.5-51.9c0-13.9,2.6-26.1,7.9-36.7c5.3-10.6,12.8-18.7,22.7-24.5c9.9-5.8,21.3-8.6,34.4-8.6
	c13.3,0,25.2,2.5,35.7,7.5l-3.8,8.6C476.7-378.5,466.3-380.9,455.3-380.9z"/>
<path d="M1075.6-528.5H764.4c-14.3,0-25.9,11.6-25.9,25.9v311.1c0,14.3,11.6,25.9,25.9,25.9h311.1c14.3,0,25.9-11.6,25.9-25.9
	v-311.1C1101.5-516.9,1089.9-528.5,1075.6-528.5z M1075.6-200.3c0,4.9-4,8.9-8.9,8.9H773.3c-4.9,0-8.9-4-8.9-8.9v-293.4
	c0-4.9,4-8.9,8.9-8.9h293.4c4.9,0,8.9,4,8.9,8.9V-200.3z"/>
<g>
	<g>
		<g>
			<rect x="792.4" y="-342.3" width="25.9" height="15"/>
			<rect x="826.7" y="-342.3" width="127.6" height="15"/>
		</g>
		<g>
			<rect x="809.5" y="-316.9" width="109.4" height="14"/>
			<rect x="927.8" y="-316.9" width="47.7" height="14"/>
		</g>
		<g>
			<rect x="792.4" y="-391" width="128.1" height="14.5"/>
			<rect x="1014.4" y="-391" width="44.6" height="14.5"/>
			<rect x="929.3" y="-391" width="76.7" height="14.5"/>
		</g>
		<rect x="809.5" y="-293.5" width="136.9" height="16.1"/>
		<g>
			<rect x="792.4" y="-218.9" width="80.4" height="15"/>
			<rect x="881.6" y="-218.9" width="135.9" height="15"/>
		</g>
		<g>
			<rect x="990.5" y="-368.7" width="74.2" height="15"/>
			<rect x="937.6" y="-368.7" width="44.1" height="15"/>
			<rect x="792.4" y="-366.7" width="136.9" height="15.6"/>
		</g>
		<g>
			<rect x="833.4" y="-465.7" width="111" height="15.6"/>
			<rect x="792.4" y="-465.7" width="34.2" height="15.6"/>
		</g>
		<g>
			<rect x="833.4" y="-440.3" width="77.3" height="15"/>
			<rect x="792.4" y="-440.3" width="34.2" height="15"/>
		</g>
		<g>
			<rect x="833.4" y="-416.5" width="94.4" height="16.1"/>
			<rect x="792.4" y="-416.5" width="34.2" height="16.1"/>
		</g>
		<g>
			<rect x="895.1" y="-268.7" width="128.1" height="15"/>
			<rect x="809.5" y="-268.7" width="76.7" height="15"/>
		</g>
		<rect x="809.5" y="-243.8" width="25.9" height="15.6"/>
	</g>
	<rect x="775.3" y="-490.1" width="67.9" height="15"/>
	<rect x="852.1" y="-490.1" width="140.5" height="15"/>
</g>
<path d="M920,65c-129.8,0-235,105.2-235,235s105.2,235,235,235s235-105.2,235-235S1049.8,65,920,65z M920,525
	c-124.3,0-225-100.7-225-225S795.7,75,920,75s225,100.7,225,225S1044.3,525,920,525z"/>
<path d="M300-555C170.2-555,65-449.8,65-320S170.2-85,300-85s235-105.2,235-235S429.8-555,300-555z M300-95
	C175.7-95,75-195.7,75-320s100.7-225,225-225s225,100.7,225,225S424.3-95,300-95z"/>
<g>
	<path d="M748.4,355.3c0,6.3,1.8,11,5.5,14.1c3.7,3.1,9.9,4.8,18.8,5v8.4c-12.1,0-20.6-2.3-25.7-7c-5.1-4.6-7.7-11.8-7.7-21.4v-31.3
		c0-12.7-7.1-19.1-21.3-19.4v-7.4c7.5-0.1,13-1.7,16.3-4.7c3.3-3,5-7.6,5-13.7v-32.5c0-18.5,11.1-27.9,33.4-28.3v8.3
		c-8.5,0.3-14.7,2.1-18.6,5.4c-3.8,3.3-5.8,8.1-5.8,14.6v28.3c0,8-1.4,14-4.1,18c-2.7,4-7.1,6.6-13.2,7.9v0.7
		c6,1.2,10.4,3.8,13.1,7.7c2.8,3.9,4.1,9.7,4.1,17.3V355.3z"/>
	<path d="M815.8,352.8h-6.4v-84.7H780v-6h65.3v6h-29.5V352.8z"/>
	<path d="M855.9,348c0-4.1,1.7-6.1,5-6.1c3.4,0,5.1,2,5.1,6.1c0,4.1-1.7,6.1-5.1,6.1C857.6,354,855.9,352,855.9,348z"/>
	<path d="M895.3,313.3v39.5h-6.3v-90.7h21.6c11.2,0,19.6,2.1,24.9,6.2c5.4,4.2,8.1,10.4,8.1,18.8c0,6.1-1.6,11.2-4.8,15.4
		c-3.2,4.2-8.1,7.2-14.6,9l24.6,41.3h-7.6l-23.4-39.5H895.3z M895.3,307.8h17.3c7.6,0,13.6-1.7,17.8-5.1c4.2-3.4,6.3-8.4,6.3-15.1
		c0-6.9-2.1-11.9-6.2-15.1c-4.1-3.1-10.9-4.7-20.2-4.7h-15V307.8z"/>
	<path d="M961.6,348c0-4.1,1.7-6.1,5-6.1c3.4,0,5.1,2,5.1,6.1c0,4.1-1.7,6.1-5.1,6.1C963.3,354,961.6,352,961.6,348z"/>
	<path d="M1033.3,266.5c-11.4,0-20.3,3.6-26.9,10.9c-6.5,7.3-9.8,17.2-9.8,29.9c0,12.9,3.1,23,9.2,30.1c6.2,7.2,15,10.7,26.4,10.7
		c7.6,0,14.6-1,21-2.9v5.6c-6,2.1-13.5,3.2-22.4,3.2c-12.7,0-22.8-4.1-30.1-12.3s-11-19.7-11-34.5c0-9.2,1.7-17.3,5.2-24.4
		c3.5-7,8.5-12.5,15.1-16.3c6.6-3.8,14.2-5.7,22.9-5.7c8.8,0,16.8,1.7,23.8,5l-2.5,5.7C1047.5,268.2,1040.6,266.5,1033.3,266.5z"/>
	<path d="M1091.6,325.4c0-7.6,1.4-13.4,4.1-17.3c2.8-3.9,7.1-6.5,13.1-7.7v-0.7c-6-1.2-10.4-3.8-13.1-7.8c-2.8-4-4.1-10-4.1-18.1
		v-28.3c0-6.4-1.9-11.2-5.7-14.5c-3.8-3.3-10-5.1-18.6-5.4v-8.3c10.8,0,19,2.4,24.8,7.2c5.8,4.8,8.6,11.8,8.6,21.1v32.5
		c0,6.2,1.7,10.8,5.1,13.8c3.4,3,8.8,4.6,16.3,4.7v7.4c-14.2,0.2-21.3,6.7-21.3,19.4v31.3c0,9.6-2.6,16.7-7.7,21.4
		c-5.1,4.7-13.7,7-25.7,7v-8.4c8.7-0.1,15-1.7,18.7-4.9c3.7-3.1,5.6-7.9,5.6-14.2V325.4z"/>
</g>
<g>
	<path d="M748.4,355.3c0,6.3,1.8,11,5.5,14.1c3.7,3.1,9.9,4.8,18.8,5v8.4c-12.1,0-20.6-2.3-25.7-7c-5.1-4.6-7.7-11.8-7.7-21.4v-31.3
		c0-12.7-7.1-19.1-21.3-19.4v-7.4c7.5-0.1,13-1.7,16.3-4.7c3.3-3,5-7.6,5-13.7v-32.5c0-18.5,11.1-27.9,33.4-28.3v8.3
		c-8.5,0.3-14.7,2.1-18.6,5.4c-3.8,3.3-5.8,8.1-5.8,14.6v28.3c0,8-1.4,14-4.1,18c-2.7,4-7.1,6.6-13.2,7.9v0.7
		c6,1.2,10.4,3.8,13.1,7.7c2.8,3.9,4.1,9.7,4.1,17.3V355.3z"/>
	<path d="M815.8,352.8h-6.4v-84.7H780v-6h65.3v6h-29.5V352.8z"/>
	<path d="M855.9,348c0-4.1,1.7-6.1,5-6.1c3.4,0,5.1,2,5.1,6.1c0,4.1-1.7,6.1-5.1,6.1C857.6,354,855.9,352,855.9,348z"/>
	<path d="M895.3,313.3v39.5h-6.3v-90.7h21.6c11.2,0,19.6,2.1,24.9,6.2c5.4,4.2,8.1,10.4,8.1,18.8c0,6.1-1.6,11.2-4.8,15.4
		c-3.2,4.2-8.1,7.2-14.6,9l24.6,41.3h-7.6l-23.4-39.5H895.3z M895.3,307.8h17.3c7.6,0,13.6-1.7,17.8-5.1c4.2-3.4,6.3-8.4,6.3-15.1
		c0-6.9-2.1-11.9-6.2-15.1c-4.1-3.1-10.9-4.7-20.2-4.7h-15V307.8z"/>
	<path d="M961.6,348c0-4.1,1.7-6.1,5-6.1c3.4,0,5.1,2,5.1,6.1c0,4.1-1.7,6.1-5.1,6.1C963.3,354,961.6,352,961.6,348z"/>
	<path d="M1033.3,266.5c-11.4,0-20.3,3.6-26.9,10.9c-6.5,7.3-9.8,17.2-9.8,29.9c0,12.9,3.1,23,9.2,30.1c6.2,7.2,15,10.7,26.4,10.7
		c7.6,0,14.6-1,21-2.9v5.6c-6,2.1-13.5,3.2-22.4,3.2c-12.7,0-22.8-4.1-30.1-12.3s-11-19.7-11-34.5c0-9.2,1.7-17.3,5.2-24.4
		c3.5-7,8.5-12.5,15.1-16.3c6.6-3.8,14.2-5.7,22.9-5.7c8.8,0,16.8,1.7,23.8,5l-2.5,5.7C1047.5,268.2,1040.6,266.5,1033.3,266.5z"/>
	<path d="M1091.6,325.4c0-7.6,1.4-13.4,4.1-17.3c2.8-3.9,7.1-6.5,13.1-7.7v-0.7c-6-1.2-10.4-3.8-13.1-7.8c-2.8-4-4.1-10-4.1-18.1
		v-28.3c0-6.4-1.9-11.2-5.7-14.5c-3.8-3.3-10-5.1-18.6-5.4v-8.3c10.8,0,19,2.4,24.8,7.2c5.8,4.8,8.6,11.8,8.6,21.1v32.5
		c0,6.2,1.7,10.8,5.1,13.8c3.4,3,8.8,4.6,16.3,4.7v7.4c-14.2,0.2-21.3,6.7-21.3,19.4v31.3c0,9.6-2.6,16.7-7.7,21.4
		c-5.1,4.7-13.7,7-25.7,7v-8.4c8.7-0.1,15-1.7,18.7-4.9c3.7-3.1,5.6-7.9,5.6-14.2V325.4z"/>
</g>
<path d="M550,300L300,50L50,300l250,250L550,300z M60.6,300L300,60.6L539.4,300L300,539.4L60.6,300z"/>
<g>
	<path d="M170.9,341.6c0,4.7,1.4,8.3,4.2,10.6c2.8,2.3,7.5,3.6,14.1,3.7v6.4c-9.1,0-15.5-1.7-19.4-5.2c-3.8-3.5-5.8-8.9-5.8-16.1
		v-23.5c0-9.5-5.4-14.4-16.1-14.6v-5.6c5.7-0.1,9.8-1.3,12.3-3.6c2.5-2.3,3.8-5.7,3.8-10.3V259c0-13.9,8.4-21,25.1-21.3v6.3
		c-6.4,0.2-11.1,1.6-14,4c-2.9,2.5-4.3,6.1-4.3,11v21.3c0,6-1,10.6-3.1,13.5c-2,3-5.4,5-9.9,5.9v0.6c4.5,0.9,7.8,2.9,9.9,5.8
		c2.1,3,3.1,7.3,3.1,13V341.6z"/>
	<path d="M221.6,339.7h-4.8V276h-22.2v-4.5h49.1v4.5h-22.2V339.7z"/>
	<path d="M251.8,336.1c0-3,1.2-4.6,3.7-4.6c2.5,0,3.8,1.5,3.8,4.6c0,3-1.3,4.6-3.8,4.6C253.1,340.6,251.8,339.1,251.8,336.1z"/>
	<path d="M281.4,310v29.7h-4.8v-68.2h16.2c8.5,0,14.7,1.6,18.8,4.7c4,3.1,6.1,7.8,6.1,14.1c0,4.6-1.2,8.4-3.6,11.6
		c-2.4,3.1-6.1,5.4-11,6.8l18.5,31.1h-5.7L298.3,310H281.4z M281.4,305.9h13c5.8,0,10.2-1.3,13.4-3.8c3.2-2.6,4.8-6.4,4.8-11.4
		c0-5.2-1.6-9-4.7-11.3c-3.1-2.4-8.2-3.5-15.2-3.5h-11.3V305.9z"/>
	<path d="M331.3,336.1c0-3,1.2-4.6,3.7-4.6c2.5,0,3.8,1.5,3.8,4.6c0,3-1.3,4.6-3.8,4.6C332.5,340.6,331.3,339.1,331.3,336.1z"/>
	<path d="M385.2,274.8c-8.6,0-15.3,2.7-20.2,8.2c-4.9,5.5-7.4,13-7.4,22.5c0,9.7,2.3,17.3,7,22.7c4.6,5.4,11.3,8.1,19.9,8.1
		c5.7,0,11-0.7,15.8-2.2v4.2c-4.5,1.6-10.1,2.4-16.9,2.4c-9.6,0-17.1-3.1-22.6-9.3c-5.5-6.2-8.3-14.8-8.3-25.9
		c0-6.9,1.3-13,3.9-18.3c2.6-5.3,6.4-9.4,11.3-12.2c4.9-2.9,10.7-4.3,17.2-4.3c6.7,0,12.6,1.2,17.9,3.7l-1.9,4.3
		C395.9,276.1,390.7,274.8,385.2,274.8z"/>
	<path d="M429.1,319.1c0-5.7,1-10.1,3.1-13c2.1-3,5.4-4.9,9.9-5.8v-0.6c-4.5-0.9-7.8-2.9-9.9-5.9c-2.1-3-3.1-7.5-3.1-13.6V259
		c0-4.8-1.4-8.4-4.3-10.9c-2.9-2.5-7.5-3.8-14-4.1v-6.3c8.1,0,14.3,1.8,18.6,5.4c4.3,3.6,6.5,8.9,6.5,15.9v24.4
		c0,4.7,1.3,8.1,3.8,10.4c2.5,2.3,6.6,3.4,12.2,3.5v5.6c-10.7,0.2-16.1,5-16.1,14.6V341c0,7.2-1.9,12.6-5.8,16.1
		c-3.8,3.5-10.3,5.3-19.4,5.3V356c6.6-0.1,11.2-1.3,14.1-3.7c2.8-2.4,4.2-5.9,4.2-10.7V319.1z"/>
</g>
</svg>
