<?xml version="1.0" encoding="utf-8"?>
<!-- Generator: Adobe Illustrator 19.1.0, SVG Export Plug-In . SVG Version: 6.00 Build 0)  -->
<svg version="1.1" id="Layer_1" xmlns="http://www.w3.org/2000/svg" xmlns:xlink="http://www.w3.org/1999/xlink" x="0px" y="0px"
	 viewBox="0 0 600 600" style="enable-background:new 0 0 600 600;" xml:space="preserve">
<path d="M-462.1-248.7h-9.6v-127.4H-516v-9h98.2v9h-44.3V-248.7z"/>
<path d="M-355.4-244.9v59.4h-9.5v-136.3h32.5c16.9,0,29.4,3.1,37.5,9.4c8.1,6.2,12.1,15.7,12.1,28.2c0,9.1-2.4,16.8-7.2,23.1
	c-4.8,6.3-12.1,10.8-22,13.5l37,62.1h-11.4l-35.2-59.4H-355.4z M-355.4-253.1h26c11.5,0,20.4-2.6,26.8-7.7
	c6.3-5.1,9.5-12.7,9.5-22.7c0-10.4-3.1-17.9-9.3-22.7c-6.2-4.7-16.4-7.1-30.4-7.1h-22.6V-253.1z"/>
<path d="M-164.7-380.9c-17.1,0-30.6,5.5-40.4,16.4c-9.8,10.9-14.7,25.9-14.7,45c0,19.5,4.6,34.6,13.9,45.3
	c9.3,10.8,22.5,16.1,39.7,16.1c11.4,0,21.9-1.5,31.5-4.4v8.4c-9,3.2-20.3,4.8-33.8,4.8c-19.2,0-34.2-6.2-45.2-18.6
	c-11-12.4-16.5-29.7-16.5-51.9c0-13.9,2.6-26.1,7.9-36.7c5.3-10.6,12.8-18.7,22.7-24.5c9.9-5.8,21.3-8.6,34.4-8.6
	c13.3,0,25.2,2.5,35.7,7.5l-3.8,8.6C-143.3-378.5-153.7-380.9-164.7-380.9z"/>
<path d="M455.6-528.5H144.4c-14.3,0-25.9,11.6-25.9,25.9v311.1c0,14.3,11.6,25.9,25.9,25.9h311.1c14.3,0,25.9-11.6,25.9-25.9v-311.1
	C481.5-516.9,469.9-528.5,455.6-528.5z M455.6-200.3c0,4.9-4,8.9-8.9,8.9H153.3c-4.9,0-8.9-4-8.9-8.9v-293.4c0-4.9,4-8.9,8.9-8.9
	h293.4c4.9,0,8.9,4,8.9,8.9V-200.3z"/>
<g>
	<g>
		<g>
			<rect x="172.4" y="-342.3" width="25.9" height="15"/>
			<rect x="206.7" y="-342.3" width="127.6" height="15"/>
		</g>
		<g>
			<rect x="189.5" y="-316.9" width="109.4" height="14"/>
			<rect x="307.8" y="-316.9" width="47.7" height="14"/>
		</g>
		<g>
			<rect x="172.4" y="-391" width="128.1" height="14.5"/>
			<rect x="394.4" y="-391" width="44.6" height="14.5"/>
			<rect x="309.3" y="-391" width="76.7" height="14.5"/>
		</g>
		<rect x="189.5" y="-293.5" width="136.9" height="16.1"/>
		<g>
			<rect x="172.4" y="-218.9" width="80.4" height="15"/>
			<rect x="261.6" y="-218.9" width="135.9" height="15"/>
		</g>
		<g>
			<rect x="370.5" y="-368.7" width="74.2" height="15"/>
			<rect x="317.6" y="-368.7" width="44.1" height="15"/>
			<rect x="172.4" y="-366.7" width="136.9" height="15.6"/>
		</g>
		<g>
			<rect x="213.4" y="-465.7" width="111" height="15.6"/>
			<rect x="172.4" y="-465.7" width="34.2" height="15.6"/>
		</g>
		<g>
			<rect x="213.4" y="-440.3" width="77.3" height="15"/>
			<rect x="172.4" y="-440.3" width="34.2" height="15"/>
		</g>
		<g>
			<rect x="213.4" y="-416.5" width="94.4" height="16.1"/>
			<rect x="172.4" y="-416.5" width="34.2" height="16.1"/>
		</g>
		<g>
			<rect x="275.1" y="-268.7" width="128.1" height="15"/>
			<rect x="189.5" y="-268.7" width="76.7" height="15"/>
		</g>
		<rect x="189.5" y="-243.8" width="25.9" height="15.6"/>
	</g>
	<rect x="155.3" y="-490.1" width="67.9" height="15"/>
	<rect x="232.1" y="-490.1" width="140.5" height="15"/>
</g>
<path d="M300,65C170.2,65,65,170.2,65,300s105.2,235,235,235s235-105.2,235-235S429.8,65,300,65z M300,525
	C175.7,525,75,424.3,75,300S175.7,75,300,75s225,100.7,225,225S424.3,525,300,525z"/>
<path d="M-320-555c-129.8,0-235,105.2-235,235S-449.8-85-320-85S-85-190.2-85-320S-190.2-555-320-555z M-320-95
	c-124.3,0-225-100.7-225-225s100.7-225,225-225S-95-444.3-95-320S-195.7-95-320-95z"/>
<g>
	<path d="M128.4,355.3c0,6.3,1.8,11,5.5,14.1c3.7,3.1,9.9,4.8,18.8,5v8.4c-12.1,0-20.6-2.3-25.7-7c-5.1-4.6-7.7-11.8-7.7-21.4v-31.3
		c0-12.7-7.1-19.1-21.3-19.4v-7.4c7.5-0.1,13-1.7,16.3-4.7c3.3-3,5-7.6,5-13.7v-32.5c0-18.5,11.1-27.9,33.4-28.3v8.3
		c-8.5,0.3-14.7,2.1-18.6,5.4c-3.8,3.3-5.8,8.1-5.8,14.6v28.3c0,8-1.4,14-4.1,18c-2.7,4-7.1,6.6-13.2,7.9v0.7
		c6,1.2,10.4,3.8,13.1,7.7c2.8,3.9,4.1,9.7,4.1,17.3V355.3z"/>
	<path d="M195.8,352.8h-6.4v-84.7H160v-6h65.3v6h-29.5V352.8z"/>
	<path d="M235.9,348c0-4.1,1.7-6.1,5-6.1c3.4,0,5.1,2,5.1,6.1c0,4.1-1.7,6.1-5.1,6.1C237.6,354,235.9,352,235.9,348z"/>
	<path d="M275.3,313.3v39.5h-6.3v-90.7h21.6c11.2,0,19.6,2.1,24.9,6.2c5.4,4.2,8.1,10.4,8.1,18.8c0,6.1-1.6,11.2-4.8,15.4
		c-3.2,4.2-8.1,7.2-14.6,9l24.6,41.3h-7.6l-23.4-39.5H275.3z M275.3,307.8h17.3c7.6,0,13.6-1.7,17.8-5.1c4.2-3.4,6.3-8.4,6.3-15.1
		c0-6.9-2.1-11.9-6.2-15.1c-4.1-3.1-10.9-4.7-20.2-4.7h-15V307.8z"/>
	<path d="M341.6,348c0-4.1,1.7-6.1,5-6.1c3.4,0,5.1,2,5.1,6.1c0,4.1-1.7,6.1-5.1,6.1C343.3,354,341.6,352,341.6,348z"/>
	<path d="M413.3,266.5c-11.4,0-20.3,3.6-26.9,10.9c-6.5,7.3-9.8,17.2-9.8,29.9c0,12.9,3.1,23,9.2,30.1c6.2,7.2,15,10.7,26.4,10.7
		c7.6,0,14.6-1,21-2.9v5.6c-6,2.1-13.5,3.2-22.4,3.2c-12.7,0-22.8-4.1-30.1-12.3s-11-19.7-11-34.5c0-9.2,1.7-17.3,5.2-24.4
		c3.5-7,8.5-12.5,15.1-16.3c6.6-3.8,14.2-5.7,22.9-5.7c8.8,0,16.8,1.7,23.8,5l-2.5,5.7C427.5,268.2,420.6,266.5,413.3,266.5z"/>
	<path d="M471.6,325.4c0-7.6,1.4-13.4,4.1-17.3c2.8-3.9,7.1-6.5,13.1-7.7v-0.7c-6-1.2-10.4-3.8-13.1-7.8c-2.8-4-4.1-10-4.1-18.1
		v-28.3c0-6.4-1.9-11.2-5.7-14.5c-3.8-3.3-10-5.1-18.6-5.4v-8.3c10.8,0,19,2.4,24.8,7.2c5.8,4.8,8.6,11.8,8.6,21.1v32.5
		c0,6.2,1.7,10.8,5.1,13.8c3.4,3,8.8,4.6,16.3,4.7v7.4c-14.2,0.2-21.3,6.7-21.3,19.4v31.3c0,9.6-2.6,16.7-7.7,21.4
		c-5.1,4.7-13.7,7-25.7,7v-8.4c8.7-0.1,15-1.7,18.7-4.9c3.7-3.1,5.6-7.9,5.6-14.2V325.4z"/>
</g>
<g>
	<path d="M128.4,355.3c0,6.3,1.8,11,5.5,14.1c3.7,3.1,9.9,4.8,18.8,5v8.4c-12.1,0-20.6-2.3-25.7-7c-5.1-4.6-7.7-11.8-7.7-21.4v-31.3
		c0-12.7-7.1-19.1-21.3-19.4v-7.4c7.5-0.1,13-1.7,16.3-4.7c3.3-3,5-7.6,5-13.7v-32.5c0-18.5,11.1-27.9,33.4-28.3v8.3
		c-8.5,0.3-14.7,2.1-18.6,5.4c-3.8,3.3-5.8,8.1-5.8,14.6v28.3c0,8-1.4,14-4.1,18c-2.7,4-7.1,6.6-13.2,7.9v0.7
		c6,1.2,10.4,3.8,13.1,7.7c2.8,3.9,4.1,9.7,4.1,17.3V355.3z"/>
	<path d="M195.8,352.8h-6.4v-84.7H160v-6h65.3v6h-29.5V352.8z"/>
	<path d="M235.9,348c0-4.1,1.7-6.1,5-6.1c3.4,0,5.1,2,5.1,6.1c0,4.1-1.7,6.1-5.1,6.1C237.6,354,235.9,352,235.9,348z"/>
	<path d="M275.3,313.3v39.5h-6.3v-90.7h21.6c11.2,0,19.6,2.1,24.9,6.2c5.4,4.2,8.1,10.4,8.1,18.8c0,6.1-1.6,11.2-4.8,15.4
		c-3.2,4.2-8.1,7.2-14.6,9l24.6,41.3h-7.6l-23.4-39.5H275.3z M275.3,307.8h17.3c7.6,0,13.6-1.7,17.8-5.1c4.2-3.4,6.3-8.4,6.3-15.1
		c0-6.9-2.1-11.9-6.2-15.1c-4.1-3.1-10.9-4.7-20.2-4.7h-15V307.8z"/>
	<path d="M341.6,348c0-4.1,1.7-6.1,5-6.1c3.4,0,5.1,2,5.1,6.1c0,4.1-1.7,6.1-5.1,6.1C343.3,354,341.6,352,341.6,348z"/>
	<path d="M413.3,266.5c-11.4,0-20.3,3.6-26.9,10.9c-6.5,7.3-9.8,17.2-9.8,29.9c0,12.9,3.1,23,9.2,30.1c6.2,7.2,15,10.7,26.4,10.7
		c7.6,0,14.6-1,21-2.9v5.6c-6,2.1-13.5,3.2-22.4,3.2c-12.7,0-22.8-4.1-30.1-12.3s-11-19.7-11-34.5c0-9.2,1.7-17.3,5.2-24.4
		c3.5-7,8.5-12.5,15.1-16.3c6.6-3.8,14.2-5.7,22.9-5.7c8.8,0,16.8,1.7,23.8,5l-2.5,5.7C427.5,268.2,420.6,266.5,413.3,266.5z"/>
	<path d="M471.6,325.4c0-7.6,1.4-13.4,4.1-17.3c2.8-3.9,7.1-6.5,13.1-7.7v-0.7c-6-1.2-10.4-3.8-13.1-7.8c-2.8-4-4.1-10-4.1-18.1
		v-28.3c0-6.4-1.9-11.2-5.7-14.5c-3.8-3.3-10-5.1-18.6-5.4v-8.3c10.8,0,19,2.4,24.8,7.2c5.8,4.8,8.6,11.8,8.6,21.1v32.5
		c0,6.2,1.7,10.8,5.1,13.8c3.4,3,8.8,4.6,16.3,4.7v7.4c-14.2,0.2-21.3,6.7-21.3,19.4v31.3c0,9.6-2.6,16.7-7.7,21.4
		c-5.1,4.7-13.7,7-25.7,7v-8.4c8.7-0.1,15-1.7,18.7-4.9c3.7-3.1,5.6-7.9,5.6-14.2V325.4z"/>
</g>
<path d="M-62.9,0h-514.3C-600.8,0-620,19.2-620,42.9v514.3c0,23.7,19.2,42.9,42.9,42.9h514.3c23.7,0,42.9-19.2,42.9-42.9V42.9
	C-20,19.2-39.2,0-62.9,0z M-62.9,542.4c0,8.1-6.6,14.7-14.7,14.7h-484.9c-8.1,0-14.7-6.6-14.7-14.7V57.6c0-8.1,6.6-14.7,14.7-14.7
	h484.9c8.1,0,14.7,6.6,14.7,14.7V542.4z"/>
<text transform="matrix(1 0 0 1 -577.1431 172.1514)" style="font-family:'SourceCodePro-Regular'; font-size:160.3306px;">&gt;_</text>
</svg>
