<?xml version="1.0" encoding="utf-8"?>
<!-- Generator: Adobe Illustrator 19.1.0, SVG Export Plug-In . SVG Version: 6.00 Build 0)  -->
<svg version="1.1" id="Layer_1" xmlns="http://www.w3.org/2000/svg" xmlns:xlink="http://www.w3.org/1999/xlink" x="0px" y="0px"
	 viewBox="0 0 600 600" style="enable-background:new 0 0 600 600;" xml:space="preserve">
<path d="M152.9,387h-12.3V224.4H84.1V213h125.4v11.4h-56.6V387z"/>
<path d="M254.8,464.4v75.8h-12.1V366.2H284c21.6,0,37.5,4,47.9,12c10.3,8,15.5,20,15.5,36c0,11.7-3.1,21.5-9.2,29.5
	c-6.2,8-15.5,13.8-28,17.3l47.3,79.3h-14.5L298,464.4H254.8z M254.8,453.9H288c14.7,0,26.1-3.3,34.2-9.8c8.1-6.5,12.1-16.2,12.1-29
	c0-13.3-4-22.9-11.9-28.9c-7.9-6-20.9-9-38.8-9h-28.8V453.9z"/>
<path d="M472.5,221.5c-21.8,0-39,7-51.6,21c-12.5,14-18.8,33.1-18.8,57.4c0,24.8,5.9,44.1,17.7,57.9c11.8,13.7,28.7,20.6,50.7,20.6
	c14.6,0,28-1.9,40.2-5.6v10.7c-11.5,4-25.9,6.1-43.1,6.1c-24.4,0-43.7-7.9-57.7-23.7C396,350,389,327.9,389,299.6
	c0-17.7,3.4-33.3,10.1-46.8c6.7-13.5,16.4-23.9,28.9-31.3c12.6-7.3,27.2-11,43.9-11c17,0,32.2,3.2,45.6,9.5l-4.9,11
	C499.8,224.7,486.5,221.5,472.5,221.5z"/>
<path d="M300,0C134.3,0,0,134.3,0,300s134.3,300,300,300s300-134.3,300-300S465.7,0,300,0z M300,587.2
	C141.4,587.2,12.8,458.6,12.8,300S141.4,12.8,300,12.8S587.2,141.4,587.2,300S458.6,587.2,300,587.2z"/>
</svg>
