<?xml version="1.0" encoding="utf-8"?>
<!-- Generator: Adobe Illustrator 19.1.0, SVG Export Plug-In . SVG Version: 6.00 Build 0)  -->
<svg version="1.1" id="Layer_1" xmlns="http://www.w3.org/2000/svg" xmlns:xlink="http://www.w3.org/1999/xlink" x="0px" y="0px"
	 viewBox="0 0 600 600" style="enable-background:new 0 0 600 600;" xml:space="preserve">
<path d="M455.6,91.5H144.4c-14.3,0-25.9,11.6-25.9,25.9v311.1c0,14.3,11.6,25.9,25.9,25.9h311.1c14.3,0,25.9-11.6,25.9-25.9V117.5
	C481.5,103.1,469.9,91.5,455.6,91.5z M455.6,419.7c0,4.9-4,8.9-8.9,8.9H153.3c-4.9,0-8.9-4-8.9-8.9V126.4c0-4.9,4-8.9,8.9-8.9h293.4
	c4.9,0,8.9,4,8.9,8.9V419.7z"/>
<g>
	<g>
		<g>
			<rect x="172.4" y="277.7" width="25.9" height="15"/>
			<rect x="206.7" y="277.7" width="127.6" height="15"/>
		</g>
		<g>
			<rect x="189.5" y="303.1" width="109.4" height="14"/>
			<rect x="307.8" y="303.1" width="47.7" height="14"/>
		</g>
		<g>
			<rect x="172.4" y="229" width="128.1" height="14.5"/>
			<rect x="394.4" y="229" width="44.6" height="14.5"/>
			<rect x="309.3" y="229" width="76.7" height="14.5"/>
		</g>
		<rect x="189.5" y="326.5" width="136.9" height="16.1"/>
		<g>
			<rect x="172.4" y="401.1" width="80.4" height="15"/>
			<rect x="261.6" y="401.1" width="135.9" height="15"/>
		</g>
		<g>
			<rect x="370.5" y="251.3" width="74.2" height="15"/>
			<rect x="317.6" y="251.3" width="44.1" height="15"/>
			<rect x="172.4" y="253.3" width="136.9" height="15.6"/>
		</g>
		<g>
			<rect x="213.4" y="154.3" width="111" height="15.6"/>
			<rect x="172.4" y="154.3" width="34.2" height="15.6"/>
		</g>
		<g>
			<rect x="213.4" y="179.7" width="77.3" height="15"/>
			<rect x="172.4" y="179.7" width="34.2" height="15"/>
		</g>
		<g>
			<rect x="213.4" y="203.5" width="94.4" height="16.1"/>
			<rect x="172.4" y="203.5" width="34.2" height="16.1"/>
		</g>
		<g>
			<rect x="275.1" y="351.3" width="128.1" height="15"/>
			<rect x="189.5" y="351.3" width="76.7" height="15"/>
		</g>
		<rect x="189.5" y="376.2" width="25.9" height="15.6"/>
	</g>
	<rect x="155.3" y="129.9" width="67.9" height="15"/>
	<rect x="232.1" y="129.9" width="140.5" height="15"/>
</g>
</svg>
