<?xml version="1.0" encoding="utf-8"?>
<!-- Generator: Adobe Illustrator 19.1.0, SVG Export Plug-In . SVG Version: 6.00 Build 0)  -->
<svg version="1.1" id="Layer_1" xmlns="http://www.w3.org/2000/svg" xmlns:xlink="http://www.w3.org/1999/xlink" x="0px" y="0px"
	 viewBox="0 0 600 600" style="enable-background:new 0 0 600 600;" xml:space="preserve">
<path d="M157.9,371.3h-9.6V243.9H104v-9h98.2v9h-44.3V371.3z"/>
<path d="M264.6,375.1v59.4H255V298.2h32.5c16.9,0,29.4,3.1,37.5,9.4c8.1,6.2,12.1,15.7,12.1,28.2c0,9.1-2.4,16.8-7.2,23.1
	c-4.8,6.3-12.1,10.8-22,13.5l37,62.1h-11.4l-35.2-59.4H264.6z M264.6,366.9h26c11.5,0,20.4-2.6,26.8-7.7c6.3-5.1,9.5-12.7,9.5-22.7
	c0-10.4-3.1-17.9-9.3-22.7c-6.2-4.7-16.4-7.1-30.4-7.1h-22.6V366.9z"/>
<path d="M455.3,239.1c-17.1,0-30.6,5.5-40.4,16.4c-9.8,10.9-14.7,25.9-14.7,45c0,19.5,4.6,34.6,13.9,45.3
	c9.3,10.8,22.5,16.1,39.7,16.1c11.4,0,21.9-1.5,31.5-4.4v8.4c-9,3.2-20.3,4.8-33.8,4.8c-19.2,0-34.2-6.2-45.2-18.6
	c-11-12.4-16.5-29.7-16.5-51.9c0-13.9,2.6-26.1,7.9-36.7c5.3-10.6,12.8-18.7,22.7-24.5c9.9-5.8,21.3-8.6,34.4-8.6
	c13.3,0,25.2,2.5,35.7,7.5l-3.8,8.6C476.7,241.5,466.3,239.1,455.3,239.1z"/>
<path d="M300,65C170.2,65,65,170.2,65,300s105.2,235,235,235s235-105.2,235-235S429.8,65,300,65z M300,525
	C175.7,525,75,424.3,75,300S175.7,75,300,75s225,100.7,225,225S424.3,525,300,525z"/>
</svg>
