<?xml version="1.0" encoding="utf-8"?>
<!-- Generator: Adobe Illustrator 19.1.0, SVG Export Plug-In . SVG Version: 6.00 Build 0)  -->
<svg version="1.1" id="Layer_1" xmlns="http://www.w3.org/2000/svg" xmlns:xlink="http://www.w3.org/1999/xlink" x="0px" y="0px"
	 viewBox="0 0 600 600" style="enable-background:new 0 0 600 600;" xml:space="preserve">
<path d="M300,65C170.2,65,65,170.2,65,300s105.2,235,235,235s235-105.2,235-235S429.8,65,300,65z M300,525
	C175.7,525,75,424.3,75,300S175.7,75,300,75s225,100.7,225,225S424.3,525,300,525z"/>
<g>
	<path d="M128.4,355.3c0,6.3,1.8,11,5.5,14.1c3.7,3.1,9.9,4.8,18.8,5v8.4c-12.1,0-20.6-2.3-25.7-7c-5.1-4.6-7.7-11.8-7.7-21.4v-31.3
		c0-12.7-7.1-19.1-21.3-19.4v-7.4c7.5-0.1,13-1.7,16.3-4.7c3.3-3,5-7.6,5-13.7v-32.5c0-18.5,11.1-27.9,33.4-28.3v8.3
		c-8.5,0.3-14.7,2.1-18.6,5.4c-3.8,3.3-5.8,8.1-5.8,14.6v28.3c0,8-1.4,14-4.1,18c-2.7,4-7.1,6.6-13.2,7.9v0.7
		c6,1.2,10.4,3.8,13.1,7.7c2.8,3.9,4.1,9.7,4.1,17.3V355.3z"/>
	<path d="M195.8,352.8h-6.4v-84.7H160v-6h65.3v6h-29.5V352.8z"/>
	<path d="M235.9,348c0-4.1,1.7-6.1,5-6.1c3.4,0,5.1,2,5.1,6.1c0,4.1-1.7,6.1-5.1,6.1C237.6,354,235.9,352,235.9,348z"/>
	<path d="M275.3,313.3v39.5h-6.3v-90.7h21.6c11.2,0,19.6,2.1,24.9,6.2c5.4,4.2,8.1,10.4,8.1,18.8c0,6.1-1.6,11.2-4.8,15.4
		c-3.2,4.2-8.1,7.2-14.6,9l24.6,41.3h-7.6l-23.4-39.5H275.3z M275.3,307.8h17.3c7.6,0,13.6-1.7,17.8-5.1c4.2-3.4,6.3-8.4,6.3-15.1
		c0-6.9-2.1-11.9-6.2-15.1c-4.1-3.1-10.9-4.7-20.2-4.7h-15V307.8z"/>
	<path d="M341.6,348c0-4.1,1.7-6.1,5-6.1c3.4,0,5.1,2,5.1,6.1c0,4.1-1.7,6.1-5.1,6.1C343.3,354,341.6,352,341.6,348z"/>
	<path d="M413.3,266.5c-11.4,0-20.3,3.6-26.9,10.9c-6.5,7.3-9.8,17.2-9.8,29.9c0,12.9,3.1,23,9.2,30.1c6.2,7.2,15,10.7,26.4,10.7
		c7.6,0,14.6-1,21-2.9v5.6c-6,2.1-13.5,3.2-22.4,3.2c-12.7,0-22.8-4.1-30.1-12.3s-11-19.7-11-34.5c0-9.2,1.7-17.3,5.2-24.4
		c3.5-7,8.5-12.5,15.1-16.3c6.6-3.8,14.2-5.7,22.9-5.7c8.8,0,16.8,1.7,23.8,5l-2.5,5.7C427.5,268.2,420.6,266.5,413.3,266.5z"/>
	<path d="M471.6,325.4c0-7.6,1.4-13.4,4.1-17.3c2.8-3.9,7.1-6.5,13.1-7.7v-0.7c-6-1.2-10.4-3.8-13.1-7.8c-2.8-4-4.1-10-4.1-18.1
		v-28.3c0-6.4-1.9-11.2-5.7-14.5c-3.8-3.3-10-5.1-18.6-5.4v-8.3c10.8,0,19,2.4,24.8,7.2c5.8,4.8,8.6,11.8,8.6,21.1v32.5
		c0,6.2,1.7,10.8,5.1,13.8c3.4,3,8.8,4.6,16.3,4.7v7.4c-14.2,0.2-21.3,6.7-21.3,19.4v31.3c0,9.6-2.6,16.7-7.7,21.4
		c-5.1,4.7-13.7,7-25.7,7v-8.4c8.7-0.1,15-1.7,18.7-4.9c3.7-3.1,5.6-7.9,5.6-14.2V325.4z"/>
</g>
<g>
	<path d="M128.4,355.3c0,6.3,1.8,11,5.5,14.1c3.7,3.1,9.9,4.8,18.8,5v8.4c-12.1,0-20.6-2.3-25.7-7c-5.1-4.6-7.7-11.8-7.7-21.4v-31.3
		c0-12.7-7.1-19.1-21.3-19.4v-7.4c7.5-0.1,13-1.7,16.3-4.7c3.3-3,5-7.6,5-13.7v-32.5c0-18.5,11.1-27.9,33.4-28.3v8.3
		c-8.5,0.3-14.7,2.1-18.6,5.4c-3.8,3.3-5.8,8.1-5.8,14.6v28.3c0,8-1.4,14-4.1,18c-2.7,4-7.1,6.6-13.2,7.9v0.7
		c6,1.2,10.4,3.8,13.1,7.7c2.8,3.9,4.1,9.7,4.1,17.3V355.3z"/>
	<path d="M195.8,352.8h-6.4v-84.7H160v-6h65.3v6h-29.5V352.8z"/>
	<path d="M235.9,348c0-4.1,1.7-6.1,5-6.1c3.4,0,5.1,2,5.1,6.1c0,4.1-1.7,6.1-5.1,6.1C237.6,354,235.9,352,235.9,348z"/>
	<path d="M275.3,313.3v39.5h-6.3v-90.7h21.6c11.2,0,19.6,2.1,24.9,6.2c5.4,4.2,8.1,10.4,8.1,18.8c0,6.1-1.6,11.2-4.8,15.4
		c-3.2,4.2-8.1,7.2-14.6,9l24.6,41.3h-7.6l-23.4-39.5H275.3z M275.3,307.8h17.3c7.6,0,13.6-1.7,17.8-5.1c4.2-3.4,6.3-8.4,6.3-15.1
		c0-6.9-2.1-11.9-6.2-15.1c-4.1-3.1-10.9-4.7-20.2-4.7h-15V307.8z"/>
	<path d="M341.6,348c0-4.1,1.7-6.1,5-6.1c3.4,0,5.1,2,5.1,6.1c0,4.1-1.7,6.1-5.1,6.1C343.3,354,341.6,352,341.6,348z"/>
	<path d="M413.3,266.5c-11.4,0-20.3,3.6-26.9,10.9c-6.5,7.3-9.8,17.2-9.8,29.9c0,12.9,3.1,23,9.2,30.1c6.2,7.2,15,10.7,26.4,10.7
		c7.6,0,14.6-1,21-2.9v5.6c-6,2.1-13.5,3.2-22.4,3.2c-12.7,0-22.8-4.1-30.1-12.3s-11-19.7-11-34.5c0-9.2,1.7-17.3,5.2-24.4
		c3.5-7,8.5-12.5,15.1-16.3c6.6-3.8,14.2-5.7,22.9-5.7c8.8,0,16.8,1.7,23.8,5l-2.5,5.7C427.5,268.2,420.6,266.5,413.3,266.5z"/>
	<path d="M471.6,325.4c0-7.6,1.4-13.4,4.1-17.3c2.8-3.9,7.1-6.5,13.1-7.7v-0.7c-6-1.2-10.4-3.8-13.1-7.8c-2.8-4-4.1-10-4.1-18.1
		v-28.3c0-6.4-1.9-11.2-5.7-14.5c-3.8-3.3-10-5.1-18.6-5.4v-8.3c10.8,0,19,2.4,24.8,7.2c5.8,4.8,8.6,11.8,8.6,21.1v32.5
		c0,6.2,1.7,10.8,5.1,13.8c3.4,3,8.8,4.6,16.3,4.7v7.4c-14.2,0.2-21.3,6.7-21.3,19.4v31.3c0,9.6-2.6,16.7-7.7,21.4
		c-5.1,4.7-13.7,7-25.7,7v-8.4c8.7-0.1,15-1.7,18.7-4.9c3.7-3.1,5.6-7.9,5.6-14.2V325.4z"/>
</g>
</svg>
