<?xml version="1.0" encoding="utf-8"?>
<!-- Generator: Adobe Illustrator 16.0.0, SVG Export Plug-In . SVG Version: 6.00 Build 0)  -->
<!DOCTYPE svg PUBLIC "-//W3C//DTD SVG 1.1//EN" "http://www.w3.org/Graphics/SVG/1.1/DTD/svg11.dtd">
<svg version="1.1" id="Layer_1" xmlns="http://www.w3.org/2000/svg" xmlns:xlink="http://www.w3.org/1999/xlink" x="0px" y="0px"
	 width="700px" height="700px" viewBox="0 0 700 700" enable-background="new 0 0 700 700" xml:space="preserve">
<circle fill="#0071BC" cx="350" cy="350" r="350"/>
<path fill="#0071BC" d="M630.625,559.2C566.809,644.666,464.866,700,350,700c-96.394,0-183.686-38.967-246.982-102.009"/>
<path fill="#29ABE2" d="M67.961,142.708C131.679,56.158,234.281,0,350,0c193.3,0,350,156.7,350,350
	c0,78.434-25.8,150.842-69.375,209.2"/>
<path fill="#0071BC" d="M103.018,597.991C39.384,534.613,0,446.906,0,350c0-77.581,25.242-149.267,67.961-207.292"/>
<g>
	<g>
		
			<rect x="300.658" y="94.834" transform="matrix(-0.7071 0.7071 -0.7071 -0.7071 820.4853 340.8118)" fill="#FFDD50" width="78" height="491"/>
		<polygon fill="#8C6239" points="485.41,541.771 540.938,486.244 572.202,552.56 551.727,573.035 		"/>
		<polygon points="551.727,573.035 572.202,552.56 590.359,591.193 		"/>
		<g>
			<polyline fill="#FCA9FF" points="105.252,161.083 81.918,137.748 137.779,81.886 161.113,105.221 			"/>
			<g>
				<polyline fill="#666666" points="161.113,105.221 195.055,139.162 139.193,195.023 105.252,161.083 				"/>
				<g>
					<g>
						<path fill="#F2F2F2" d="M115.795,165.388c-1.045-1.045-0.938-2.596,0.084-3.619l46.273-46.273
							c1.021-1.022,2.572-1.128,3.617-0.083l0,0c1.046,1.045,0.939,2.597-0.082,3.619l-46.273,46.273
							C118.393,166.328,116.841,166.434,115.795,165.388L115.795,165.388z"/>
					</g>
					<g>
						<path fill="#F2F2F2" d="M122.16,171.752c-1.047-1.046-0.939-2.597,0.082-3.619l46.273-46.273
							c1.021-1.022,2.572-1.128,3.619-0.083l0,0c1.045,1.045,0.938,2.596-0.084,3.618l-46.272,46.273
							C124.756,172.691,123.205,172.798,122.16,171.752L122.16,171.752z"/>
					</g>
					<g>
						<path fill="#F2F2F2" d="M128.523,178.116c-1.045-1.045-0.939-2.596,0.084-3.619l46.272-46.273
							c1.022-1.022,2.573-1.128,3.618-0.083l0,0c1.045,1.045,0.939,2.596-0.083,3.618l-46.272,46.273
							C131.119,179.055,129.568,179.162,128.523,178.116L128.523,178.116z"/>
					</g>
					<g>
						<path fill="#F2F2F2" d="M134.887,184.48c-1.045-1.045-0.938-2.596,0.084-3.619l46.273-46.273
							c1.021-1.022,2.572-1.128,3.617-0.083l0,0c1.046,1.045,0.939,2.597-0.082,3.619l-46.273,46.273
							C137.484,185.419,135.933,185.525,134.887,184.48L134.887,184.48z"/>
					</g>
				</g>
			</g>
		</g>
	</g>
	<polyline fill="#603813" points="562.75,562.012 551.727,573.035 485.41,541.771 514.667,512.515 	"/>
	
		<rect x="277.793" y="39.631" transform="matrix(-0.7071 0.7071 -0.7071 -0.7071 739.1198 344.1014)" opacity="0.3" fill="#1A1A1A" width="40.999" height="571.001"/>
</g>
</svg>
